<svg width="150" height="37" viewBox="0 0 150 37" fill="none" xmlns="http://www.w3.org/2000/svg">
<g clip-path="url(#clip0_1_687)">
<path d="M21.6865 21.4162C20.6593 22.3199 19.3847 23.4518 17.0734 23.4518H15.6846C14.0106 23.4518 12.4792 22.843 11.3949 21.7396C10.3295 20.6648 9.73981 19.181 9.73981 17.583V15.6902C9.73981 14.0827 10.3295 12.6084 11.3949 11.5336C12.4887 10.4302 14.0106 9.82142 15.6846 9.82142H17.0734C19.3942 9.82142 20.6688 10.9533 21.6865 11.857C22.7519 12.7986 23.665 13.6071 26.1095 13.6071C26.49 13.6071 26.861 13.5786 27.2225 13.5215C27.2225 13.512 27.213 13.512 27.213 13.5025C27.0703 13.141 26.8991 12.7891 26.6993 12.4467L25.0632 9.62167C23.5604 7.02496 20.7925 5.427 17.7963 5.427H14.5337C11.5375 5.427 8.76964 7.02496 7.26679 9.62167L5.6308 12.4467C4.12795 15.0434 4.12795 18.2393 5.6308 20.836L7.26679 23.661C8.76964 26.2577 11.5375 27.8557 14.5337 27.8557H17.7963C20.7925 27.8557 23.5604 26.2577 25.0632 23.661L26.6993 20.836C26.8991 20.4936 27.0703 20.1417 27.213 19.7802C27.213 19.7707 27.2225 19.7707 27.2225 19.7612C26.861 19.7041 26.49 19.6756 26.1095 19.6756C23.665 19.6566 22.7423 20.4746 21.6865 21.4162Z" fill="black"/>
<path d="M17.0641 11.524H15.6754C13.1262 11.524 11.4521 13.3503 11.4521 15.6807V17.5735C11.4521 19.9039 13.1262 21.7301 15.6754 21.7301H17.0641C20.7832 21.7301 20.4883 17.9445 26.1002 17.9445C26.6424 17.9445 27.1656 17.992 27.6888 18.0871C27.86 17.1265 27.86 16.1372 27.6888 15.1766C27.1751 15.2717 26.6424 15.3192 26.1002 15.3192C20.4883 15.3192 20.7832 11.524 17.0641 11.524Z" fill="black"/>
<path d="M30.9132 19.476C29.9525 18.7721 28.8586 18.306 27.6887 18.0872C27.6887 18.0967 27.6887 18.1063 27.6887 18.1158C27.5936 18.6675 27.4319 19.2191 27.2226 19.7518C28.2023 19.9135 29.1155 20.2844 29.8859 20.8456C29.8859 20.8552 29.8764 20.8647 29.8764 20.8742C29.4293 22.3295 28.754 23.6896 27.8789 24.9357C27.0039 26.1627 25.9576 27.247 24.7496 28.1507C22.248 30.0245 19.2613 31.0232 16.1224 31.0232C14.182 31.0232 12.2987 30.6427 10.52 29.8913C8.80787 29.1684 7.26696 28.1316 5.94483 26.8095C4.6227 25.4874 3.58593 23.9465 2.86304 22.2344C2.11161 20.4652 1.73115 18.5723 1.73115 16.6319C1.73115 14.6916 2.11161 12.8082 2.86304 11.0295C3.58593 9.31739 4.6227 7.77651 5.94483 6.45438C7.26696 5.13225 8.80787 4.09545 10.52 3.37256C12.2892 2.62114 14.182 2.24068 16.1224 2.24068C19.2613 2.24068 22.248 3.2299 24.7496 5.11322C25.9576 6.01683 27.0039 7.10117 27.8789 8.32818C28.7635 9.57422 29.4293 10.9439 29.8764 12.3897C29.8764 12.3992 29.8859 12.4087 29.8859 12.4182C29.1155 12.989 28.2023 13.3599 27.2226 13.5121C27.4319 14.0448 27.5936 14.5869 27.6887 15.1481C27.6887 15.1576 27.6887 15.1671 27.6887 15.1766C28.8586 14.9579 29.9525 14.5013 30.9132 13.7879C31.8358 13.1031 31.655 12.3422 31.5123 11.8856C29.4863 5.30344 23.3608 0.528564 16.1128 0.528564C7.21939 0.528564 0.00952148 7.73847 0.00952148 16.6319C0.00952148 25.5254 7.21939 32.7353 16.1128 32.7353C23.3608 32.7353 29.4863 27.9509 31.5123 21.3783C31.655 20.9217 31.8358 20.1513 30.9132 19.476Z" fill="black"/>
<path d="M88.8491 14.8723C91.1794 14.8723 93.3862 16.299 93.8522 19.3808H83.4654C83.903 16.6795 85.929 14.8723 88.8491 14.8723ZM93.5288 23.9465C92.7393 25.183 91.1984 26.1342 89.1058 26.1342C86.2142 26.1342 84.0076 24.5457 83.4749 21.7492H96.506C96.5726 21.3498 96.6011 20.9407 96.6011 20.5317C96.6011 16.1754 93.5574 12.3231 88.8586 12.3231C84.0076 12.3231 80.707 15.8995 80.707 20.5032C80.707 25.164 84.0361 28.6833 89.0393 28.6833C92.1496 28.6833 94.5086 27.2851 95.8782 25.1735L93.5288 23.9465Z" fill="black"/>
<path d="M79.423 5.5697H76.7217V28.2742H79.423V5.5697Z" fill="black"/>
<path d="M111.649 18.7245V28.2743H108.947V18.8862C108.947 16.3371 107.483 14.9008 105.095 14.9008C102.603 14.9008 100.587 16.3656 100.587 20.0276V28.2648H97.8757V12.7131H100.577V14.9483C101.728 13.1126 103.44 12.3041 105.618 12.3041C109.252 12.3231 111.649 14.7486 111.649 18.7245Z" fill="black"/>
<path d="M126.573 20.5031C126.573 17.3262 124.176 14.9388 121.037 14.9388C117.926 14.9388 115.529 17.3357 115.529 20.5031C115.529 23.6705 117.926 26.0675 121.037 26.0675C124.176 26.0675 126.573 23.6705 126.573 20.5031ZM129.274 5.5697V28.2742H126.573V25.6014C125.327 27.4943 123.339 28.6832 120.694 28.6832C116.376 28.6832 112.828 25.1068 112.828 20.5031C112.828 15.8995 116.376 12.323 120.694 12.323C123.339 12.323 125.327 13.5025 126.573 15.4049V5.5792H129.274V5.5697Z" fill="black"/>
<path d="M134.153 5.5697H131.452V28.2742H134.153V5.5697Z" fill="black"/>
<path d="M71.899 20.5032C71.899 17.3263 69.5021 14.9388 66.3633 14.9388C63.2529 14.9388 60.8559 17.3358 60.8559 20.5032C60.8559 23.6706 63.2529 26.0676 66.3633 26.0676C69.5021 26.0676 71.899 23.6706 71.899 20.5032ZM74.6003 12.7226V28.2743H71.899V25.6015C70.653 27.4943 68.6651 28.6833 66.0208 28.6833C61.7025 28.6833 58.1545 25.1069 58.1545 20.5032C58.1545 15.8995 61.7025 12.3231 66.0208 12.3231C68.6651 12.3231 70.653 13.5026 71.899 15.4049V12.7321H74.6003V12.7226Z" fill="black"/>
<path d="M54.1407 25.2876C52.771 25.7917 51.2776 25.9344 49.8223 25.6871C47.6061 25.3162 45.6657 24.0987 44.3625 22.2629C43.0594 20.4271 42.5459 18.2014 42.9169 15.9851C43.2878 13.7689 44.5053 11.8285 46.3411 10.5254C48.1768 9.22227 50.4026 8.70866 52.6188 9.08912C54.0741 9.33643 55.4343 9.95468 56.5662 10.8869C57.0418 11.2768 57.4698 11.7239 57.8503 12.209L60.1901 10.4969C59.6669 9.81202 59.0678 9.18423 58.4115 8.65158C56.8896 7.39603 55.0537 6.55899 53.1038 6.22608C50.1267 5.72196 47.121 6.40681 44.6575 8.15697C42.194 9.90712 40.558 12.5134 40.0538 15.5001C39.0171 21.6541 43.1737 27.5039 49.3278 28.5501C49.946 28.6548 50.5833 28.7118 51.2206 28.7118C52.5713 28.7118 53.8839 28.4741 55.1394 28.008C56.2048 27.618 57.213 27.0473 58.1261 26.3529L56.5662 23.8894C55.8433 24.4791 55.0158 24.9642 54.1407 25.2876Z" fill="black"/>
<path d="M147.223 12.7225V21.5494C147.223 24.4029 145.558 26.2102 143.028 26.2102C140.498 26.2102 138.662 24.4029 138.662 21.5494V12.7225H135.923V21.2831C135.923 25.7726 138.719 28.6832 143.028 28.6832C146.756 28.6832 147.337 26.3243 147.337 26.2672V29.4441C147.337 32.5925 145.967 34.3617 143.113 34.3617C140.964 34.3617 139.195 32.7733 138.928 30.7282L136.484 31.5843C137.188 34.59 139.87 36.8348 143.113 36.8348C147.536 36.8348 149.962 33.9242 149.962 29.4346V12.713H147.223V12.7225Z" fill="black"/>
</g>
<defs>
<clipPath id="clip0_1_687">
<rect width="150" height="36.3348" fill="white" transform="translate(0 0.5)"/>
</clipPath>
</defs>
</svg>
