<svg width="83" height="86" viewBox="0 0 83 86" fill="none" xmlns="http://www.w3.org/2000/svg">
<g clip-path="url(#clip0_1_667)">
<path fill-rule="evenodd" clip-rule="evenodd" d="M0.176758 84.9524H21.1085L0.176758 55.4286V84.9524Z" fill="black"/>
<path fill-rule="evenodd" clip-rule="evenodd" d="M0.176758 25.9047V45.1911L24.7645 82.8498L44.2339 53.2347L26.5928 25.9047H0.176758Z" fill="black"/>
<path fill-rule="evenodd" clip-rule="evenodd" d="M62.9717 25.9047L46.3359 50.4927V84.9522H81.984V25.9047H62.9717Z" fill="black"/>
<path fill-rule="evenodd" clip-rule="evenodd" d="M8.03758 24.9C3.46734 24.9 0.176758 21.1523 0.176758 16.4907C0.176758 11.8291 3.46734 7.99005 8.03758 7.99005C11.6938 7.99005 14.5273 10.1838 15.35 13.84H11.1453C10.5969 12.7431 9.40865 11.8291 7.94616 11.8291C5.75245 11.8291 4.01576 13.9314 4.01576 16.5821C4.01576 19.1415 5.75245 21.2438 7.94616 21.2438C9.40865 21.2438 10.5969 20.3297 11.1453 19.1415H15.35C14.5273 22.7976 11.6938 24.9 8.03758 24.9Z" fill="black"/>
<path fill-rule="evenodd" clip-rule="evenodd" d="M16.3557 24.5344H20.2861V8.35577H16.3557V24.5344Z" fill="black"/>
<path fill-rule="evenodd" clip-rule="evenodd" d="M30.4316 24.534C25.953 24.9911 23.5764 22.1576 23.5764 17.7702V12.1031H21.7483V8.44689H23.5764V2.77979H27.5068V8.35549H30.249V12.0117H27.5068V17.7702C27.5068 20.0553 28.5123 20.8779 30.4316 20.7865V24.534Z" fill="black"/>
<path fill-rule="evenodd" clip-rule="evenodd" d="M31.9856 24.5344H35.916V8.35577H31.9856V24.5344Z" fill="black"/>
<path fill-rule="evenodd" clip-rule="evenodd" d="M50.5409 24.5344H37.1958V20.9696L45.2394 12.1034H37.5614V8.35577H50.2667V12.1034L42.3145 20.8782H50.5409V24.5344Z" fill="black"/>
<path d="M62.1492 14.754C61.6923 12.8345 60.2299 11.6463 58.3103 11.6463C56.5737 11.6463 55.1112 12.8345 54.5628 14.754H62.1492ZM54.4712 18.136C54.9283 20.1469 56.4821 21.3352 58.3103 21.3352C59.5899 21.3352 60.8697 20.6953 61.5095 19.4157H65.7141C64.8001 22.7062 62.1492 24.9 58.3103 24.9C54.0143 24.9 50.541 21.1523 50.541 16.4907C50.541 11.8291 54.0143 7.99005 58.3103 7.99005C62.7892 7.99005 66.5368 11.7377 65.9883 18.136H54.4712Z" fill="black"/>
<path fill-rule="evenodd" clip-rule="evenodd" d="M80.7954 24.534H76.8649V15.1194C76.8649 14.2053 76.5907 11.9202 74.0314 11.9202C72.2947 11.9202 71.1065 13.2913 71.1065 15.1194V24.534H67.176V8.3554H70.9236V9.90929C71.9291 8.72102 73.2087 7.89838 74.854 7.89838C78.4189 7.89838 80.7954 10.7319 80.7954 15.028V24.534Z" fill="black"/>
</g>
<defs>
<clipPath id="clip0_1_667">
<rect width="82.1729" height="84.5207" fill="white" transform="translate(0.176758 0.548889)"/>
</clipPath>
</defs>
</svg>
