<svg width="227" height="55" viewBox="0 0 227 55" fill="none" xmlns="http://www.w3.org/2000/svg">
<g clip-path="url(#clip0_1_644)">
<path d="M19.4449 26.5109C17.6998 30.4106 17.0951 30.6014 12.8886 30.6014C9.85973 30.6014 9.24972 30.2993 8.79884 29.7695C8.23126 29.1284 8.15169 27.7666 8.15169 25.8697V12.5863C8.15169 8.64943 8.49118 8.53817 10.2735 8.27324L11.1063 8.12488C11.4086 7.93413 11.3715 7.17644 11.032 7.02808C9.36642 7.10226 7.65837 7.13935 5.99276 7.13935C4.24759 7.13935 2.54485 7.10226 0.651148 7.02808C0.311661 7.18173 0.311661 7.93413 0.576886 8.12488L1.63778 8.27324C3.42009 8.53817 3.75958 8.65473 3.75958 12.5863V26.6645C3.75958 30.6014 3.42009 30.7126 1.63778 30.9405L0.497318 31.1312C0.157831 31.322 0.269226 32.0797 0.571581 32.228C2.16293 32.1538 4.05663 32.1167 5.98746 32.1167H9.92869C14.1723 32.1167 17.4292 32.1538 19.0206 32.228C19.4768 31.2054 20.3096 28.3283 20.6119 26.7387C20.4263 26.4367 19.8216 26.3254 19.4449 26.5109Z" fill="black"/>
<path d="M19.5989 5.62396C17.8961 5.62396 17.4399 6.75785 17.4399 7.40428C17.4399 8.23615 18.0447 8.69183 18.6122 8.76601C19.5193 8.87728 20.6598 9.48131 20.6598 10.7318C20.6598 12.3955 19.2222 13.4976 17.5885 14.1758C17.4718 14.4779 17.5513 14.9335 17.8537 15.1614C20.4688 14.5202 23.0468 12.4008 23.0468 9.5237C23.0468 7.44137 21.4554 5.62396 19.5989 5.62396Z" fill="black"/>
<path d="M60.4112 16.3588C60.4112 8.03479 54.9158 0.134644 43.9779 0.134644C34.223 0.134644 27.115 7.37247 27.115 16.8357C27.115 25.3505 33.4592 32.8744 43.9726 32.8744C53.1176 32.8744 60.4112 25.9174 60.4112 16.3588ZM31.8519 15.3203C31.8519 4.96163 38.2491 1.60234 43.1717 1.60234C52.2158 1.60234 55.6743 10.0218 55.6743 17.8265C55.6743 27.1467 50.2744 31.4014 44.5933 31.4014C35.2627 31.4067 31.8519 22.3197 31.8519 15.3203Z" fill="black"/>
<path d="M87.1727 25.5676C86.1118 28.0262 84.0271 31.2053 79.2531 31.2053C74.3676 31.2053 69.3284 27.2685 69.3284 19.2094C69.3284 11.4523 74.1767 8.04531 78.9879 8.04531C83.99 8.04531 85.6927 11.1874 86.3399 13.5717C86.6051 13.8366 87.2894 13.7995 87.5546 13.4975C87.178 10.6946 87.0984 8.46389 87.0241 7.59493C86.6847 7.52075 86.4194 7.48366 85.9632 7.36709C84.1809 6.91141 81.5711 6.53522 79.4069 6.53522C75.5824 6.53522 71.7525 7.63202 68.9518 9.75144C66.1457 11.908 64.1777 15.352 64.1777 19.7816C64.1777 24.7411 66.4905 28.1851 69.5565 30.188C72.283 31.9683 75.5028 32.7207 79.2584 32.7207C81.7197 32.7207 84.3348 32.0796 85.1676 31.8146C85.5866 31.7034 86.0375 31.5497 86.4937 31.4755C87.0241 30.7549 88.0479 28.2593 88.3131 25.7213C88.1222 25.3769 87.5175 25.2285 87.1727 25.5676Z" fill="black"/>
<path d="M113.467 25.5676C112.406 28.0262 110.321 31.2053 105.547 31.2053C100.662 31.2053 95.6223 27.2685 95.6223 19.2094C95.6223 11.4523 100.471 8.04531 105.282 8.04531C110.284 8.04531 111.987 11.1874 112.634 13.5717C112.899 13.8366 113.583 13.7995 113.849 13.4975C113.472 10.6946 113.392 8.46389 113.318 7.59493C112.979 7.52075 112.713 7.48366 112.257 7.36709C110.475 6.91141 107.865 6.53522 105.701 6.53522C101.876 6.53522 98.0465 7.63202 95.2457 9.75144C92.4396 11.908 90.4717 15.352 90.4717 19.7816C90.4717 24.7411 92.7844 28.1851 95.8504 30.188C98.5769 31.9683 101.797 32.7207 105.552 32.7207C108.014 32.7207 110.629 32.0796 111.462 31.8146C111.881 31.7034 112.331 31.5497 112.788 31.4755C113.318 30.7549 114.342 28.2593 114.607 25.7213C114.411 25.3769 113.806 25.2285 113.467 25.5676Z" fill="black"/>
<path d="M117.551 31.0146L116.719 31.1312C116.453 31.3961 116.49 32.0797 116.793 32.228C118.458 32.1538 120.241 32.1167 121.906 32.1167C123.572 32.1167 125.28 32.1538 126.946 32.228C127.248 32.0797 127.285 31.3961 127.02 31.1312L126.187 31.0146C124.405 30.7868 124.065 30.6755 124.065 26.6645V12.5863C124.065 8.57525 124.405 8.46398 126.187 8.23615L127.02 8.12488C127.285 7.85995 127.248 7.17644 126.946 7.02808C125.28 7.10226 123.572 7.13935 121.906 7.13935C120.166 7.13935 118.458 7.10226 116.793 7.02808C116.49 7.18173 116.453 7.85995 116.719 8.12488L117.551 8.23615C119.334 8.46398 119.673 8.57525 119.673 12.5863V26.6645C119.673 30.6755 119.334 30.7921 117.551 31.0146Z" fill="black"/>
<path d="M147.294 31.1312L145.93 30.9776C144.148 30.7868 143.809 30.6756 143.809 26.6645V10.3132C143.809 8.72363 143.846 8.64945 144.832 8.64945H146.991C151.044 8.64945 151.765 9.37005 152.259 12.3214C152.598 12.5863 153.245 12.5121 153.431 12.2048C153.319 10.9914 153.622 7.7381 153.998 6.18562C153.924 6.07435 153.733 5.99487 153.505 5.99487C153.357 5.99487 153.203 6.06905 153.049 6.14323C152.593 7.0122 152.025 7.12876 150.169 7.12876H134.711C132.133 7.12876 131.603 7.09167 131.417 6.14323C131.343 6.03196 131.189 5.99487 131.041 5.99487C130.85 5.99487 130.701 6.03196 130.622 6.14323C130.356 7.46787 129.789 9.81513 129.142 11.8604C129.29 12.2366 130.091 12.3531 130.356 12.1253C131.757 9.05744 132.78 8.64415 136.266 8.64415H138.387C139.374 8.64415 139.411 8.71833 139.411 10.3079V26.6592C139.411 30.6703 139.072 30.7868 137.289 30.9352L135.698 31.1259C135.433 31.3167 135.47 32.0744 135.772 32.2227C138.196 32.1486 139.979 32.1115 141.644 32.1115C143.31 32.1115 145.018 32.1486 147.214 32.2227C147.522 32.0797 147.559 31.3962 147.294 31.1312Z" fill="black"/>
<path d="M175.105 31.1312L174.538 31.0147C172.607 30.6755 172.416 30.4106 171.546 27.8726L166.088 12.014C165.483 10.3132 164.99 8.53287 164.385 6.82674C164.231 6.63599 164.046 6.52472 163.743 6.52472C163.669 6.52472 162.417 8.0772 161.091 8.34212C161.202 8.98855 160.863 9.8946 160.37 11.108L155.176 24.5822C154.381 26.6274 153.776 28.217 153.32 29.1972C152.752 30.4477 152.333 30.7868 151.235 30.9405L150.1 31.1312C149.835 31.4703 149.872 32.0373 150.137 32.228C151.463 32.1538 152.636 32.1168 153.887 32.1168C155.442 32.1538 156.694 32.1538 157.903 32.228C158.205 32.0797 158.242 31.3961 157.977 31.1312L156.879 30.9405C155.479 30.7497 155.325 30.6385 156.083 28.4078L157.638 23.8669C157.977 22.8443 157.94 22.8443 158.927 22.8443H163.966C165.027 22.8443 165.138 22.8443 165.52 23.8669L167.302 29.0118C167.796 30.6385 167.679 30.8663 166.316 31.0147L165.483 31.1312C165.255 31.3591 165.292 32.0373 165.594 32.228C166.921 32.1909 168.586 32.1168 170.215 32.1168C172.188 32.1168 173.588 32.1538 175.142 32.228C175.408 32.0373 175.408 31.3961 175.105 31.1312ZM163.473 21.1381H159.531C158.624 21.1381 158.508 21.1381 158.927 20.0413L160.518 15.6117C161.202 13.8314 161.505 12.8883 161.653 12.6234H161.727C161.918 12.8883 162.147 13.6089 162.788 15.6117L164.38 20.1526C164.687 21.064 164.534 21.1381 163.473 21.1381Z" fill="black"/>
<path d="M199.124 7.13402C197.644 7.13402 196.244 7.09693 194.769 7.02275C194.392 7.13402 194.35 7.85463 194.695 8.11956L195.565 8.23083C196.514 8.38448 197.119 8.60702 197.458 9.17927C198.143 10.3132 198.18 13.7943 198.18 16.6343V24.0152C198.18 24.6193 198.18 24.81 198.068 24.9213C197.686 24.6934 194.164 20.6824 192.573 18.9445L188.786 14.854C187.459 13.4181 183.327 8.64941 182.685 7.01746C181.778 7.09164 180.866 7.12873 180.07 7.12873C179.121 7.12873 177.041 7.16582 175.599 7.01746C175.217 7.12873 175.18 7.88642 175.445 8.11426L176.012 8.22553C176.543 8.3368 177.604 8.64411 178.023 8.98322C179.312 10.08 179.275 10.6841 179.275 13.6354V22.6058C179.275 25.5942 179.275 28.8899 178.781 30.0609C178.516 30.6649 177.832 30.8186 177.116 30.9298L176.283 31.1206C175.981 31.3855 176.055 32.0266 176.357 32.2174C177.683 32.1432 178.707 32.1061 180.298 32.1061C181.736 32.1061 183.216 32.1432 184.616 32.2174C184.998 32.1061 185.035 31.3855 184.69 31.1206L183.858 31.004C182.908 30.8557 182.266 30.6278 181.927 30.0556C181.285 28.9217 181.243 25.4405 181.243 22.6005V15.2355C181.243 13.2327 181.243 12.8141 181.359 12.8141C182.001 13.381 183.216 14.8222 185.677 17.5828L194.541 27.6871C197.267 30.7921 198.365 32.0796 198.975 32.8744C199.432 32.9115 199.962 32.7579 200.264 32.3446C200.153 31.4756 200.153 26.8182 200.153 25.6843V16.6343C200.153 13.646 200.153 10.3502 200.683 9.17927C200.949 8.57523 201.591 8.42157 202.312 8.3103L203.182 8.11956C203.484 7.85463 203.41 7.2135 203.108 7.02275C201.739 7.09693 200.752 7.13402 199.124 7.13402Z" fill="black"/>
<path d="M225.147 26.5109C223.821 29.5787 222.989 30.6755 218.177 30.6014C214.995 30.6014 214.353 30.2993 213.897 29.7695C213.329 29.1284 213.255 27.7666 213.255 25.8327V21.0269C213.255 20.0784 213.292 20.0042 214.162 20.0042H215.981C219.275 20.0042 219.923 20.0784 220.188 21.668L220.453 23.1834C220.755 23.4112 221.477 23.4112 221.668 23.1463C221.631 21.9329 221.556 20.6136 221.556 19.1724C221.556 17.7735 221.631 16.4118 221.668 15.3892C221.477 15.0872 220.761 15.0872 220.453 15.3521L220.188 16.6397C219.923 18.2663 219.281 18.3034 215.981 18.3034H214.162C213.292 18.3034 213.255 18.2663 213.255 17.2808V10.8854C213.255 8.72891 213.255 8.65473 214.883 8.65473H217.419C218.443 8.65473 219.578 8.72891 220.448 8.99384C221.662 9.29586 222.23 10.2443 222.835 12.4379C223.137 12.6657 223.896 12.5863 224.049 12.2895C223.821 10.6629 223.593 7.6692 223.445 7.02808C222.951 7.10226 220.755 7.13935 218.331 7.13935H211.091C209.425 7.13935 207.643 7.10226 206.205 7.02808C205.903 7.18173 205.866 7.85995 206.131 8.12488L206.736 8.19906C208.518 8.46398 208.857 8.57525 208.857 12.5863V26.6645C208.857 30.6755 208.518 30.7921 206.736 30.9776L205.335 31.1312C205.07 31.3961 205.107 32.0797 205.409 32.228C207.112 32.1538 209.425 32.1167 211.091 32.1167H215.408C219.843 32.1167 223.1 32.1538 224.766 32.228C225.296 31.2054 226.129 28.3283 226.357 26.7387C226.134 26.3625 225.492 26.2512 225.147 26.5109Z" fill="black"/>
<path d="M50.5401 51.218C49.5587 53.2315 48.9487 53.2845 47.3998 53.2845C46.0949 53.2845 45.7554 53.1414 45.5273 52.8235C45.3152 52.5215 45.2409 51.9492 45.2409 51.128V49.0032C45.2409 48.4681 45.2568 48.4522 45.7395 48.4522H46.9702C47.8984 48.4522 48.0947 48.5952 48.291 49.4536L48.3811 49.8987C48.5085 50.0577 48.954 50.0418 49.0442 49.8828C49.0071 49.3106 48.9912 48.6694 48.9912 47.9912C48.9912 47.313 49.0071 46.6719 49.0442 46.0996C48.954 45.9407 48.5085 45.9407 48.3811 46.0837L48.291 46.5288C48.0947 47.3872 47.8984 47.509 46.9702 47.509H45.7395C45.2568 47.509 45.2409 47.472 45.2409 46.9739V43.853C45.2409 43.1907 45.2409 43.1589 45.8297 43.1589H47.2566C48.1318 43.1589 48.6676 43.3762 49.0071 43.71C49.2405 43.959 49.4898 44.4942 49.6861 45.1194C49.8664 45.2784 50.2749 45.2466 50.3491 45.0505C50.2589 43.853 50.1316 42.5708 50.1157 42.2847C49.8823 42.3218 48.8639 42.3377 47.7234 42.3377H43.9413C43.082 42.3377 42.2067 42.3218 41.3686 42.2847C41.1883 42.3906 41.1724 42.8039 41.3315 42.9099L41.7771 43C42.578 43.143 42.6894 43.2702 42.6894 44.8916V51.5412C42.6894 53.1838 42.5833 53.3057 41.7771 53.4116L40.939 53.5388C40.7957 53.6289 40.7957 54.0581 40.939 54.164C42.2757 54.1269 43.1509 54.111 44.0103 54.111H46.3336C47.7977 54.111 49.511 54.1269 50.4605 54.164C50.7098 53.6819 51.1395 52.2407 51.2084 51.3081C51.1289 51.0909 50.6833 51.022 50.5401 51.218Z" fill="black"/>
<path d="M64.39 42.3377C63.658 42.3377 62.9631 42.3218 61.9977 42.2847C61.8916 42.3906 61.8544 42.7668 61.9977 42.9099L62.4804 42.9841C62.9631 43.0742 63.3556 43.1801 63.5147 43.5563C63.711 44.0385 63.78 45.3737 63.78 46.8202V49.2788C63.78 49.602 63.78 49.904 63.711 50.0841C63.3026 49.6762 62.7986 49.0509 61.9977 48.1237L60.4965 46.3593C58.8892 44.4518 57.7276 43.0953 57.5525 42.2953C57.1759 42.3324 56.6614 42.3483 56.0513 42.3483C55.3193 42.3483 54.4282 42.3324 53.5901 42.2953C53.4097 42.3483 53.3938 42.7774 53.5158 42.9205L54.0144 42.9947C54.6403 43.1218 54.9056 43.2967 55.0329 43.5987C55.1602 43.8477 55.1602 44.1339 55.1602 45.1141V49.6444C55.1602 51.0909 55.0859 52.4261 54.9109 52.9083C54.7517 53.2845 54.4123 53.3904 53.9295 53.4964L53.6272 53.5494C53.484 53.6925 53.5211 54.0687 53.6272 54.1746C54.3062 54.1375 54.9639 54.1216 55.627 54.1216C56.3431 54.1216 57.0539 54.1375 58.0193 54.1746C58.1254 54.0687 58.1625 53.6925 58.0193 53.5494L57.5207 53.4752C57.0539 53.3851 56.6454 53.2792 56.4863 52.903C56.29 52.4208 56.2211 51.0856 56.2211 49.6391V46.1791C56.2211 45.5168 56.2211 45.2148 56.3113 45.0399C56.6348 45.3101 57.2395 46.0413 58.258 47.3236L62.3849 52.4261C63.223 53.4593 63.8118 54.3707 63.833 54.3707C64.2627 54.3707 64.7613 54.1746 64.8886 53.9627C64.8515 53.3746 64.8515 52.2513 64.8515 51.0909V46.8255C64.8515 45.379 64.9257 44.0438 65.122 43.5616C65.2811 43.1854 65.6206 43.0795 66.0874 42.9735L66.411 42.9205C66.5542 42.7774 66.5171 42.4065 66.411 42.2953C65.6949 42.3165 65.0477 42.3377 64.39 42.3377Z" fill="black"/>
<path d="M83.2369 42.7456C82.4889 42.4595 81.4864 42.2847 79.9693 42.2847C78.4151 42.2847 77.0253 42.3588 75.8424 42.4436C75.6461 42.5708 75.6461 42.9629 75.8053 43.0477L76.3569 43.1218C77.1049 43.2278 77.142 43.4239 77.142 45.2254V51.5412C77.142 53.1997 77.0359 53.3269 76.2296 53.4646L75.731 53.5547C75.5347 53.6448 75.5719 54.0528 75.7682 54.1587C76.7336 54.1216 77.5876 54.1057 78.4469 54.1057C79.3062 54.1057 80.1762 54.1216 81.1787 54.1587C81.375 54.0528 81.375 53.6448 81.1787 53.5547L80.6058 53.4646C79.7996 53.3216 79.6935 53.1997 79.6935 51.5412V44.012C79.6935 43.2967 79.7306 43.1006 80.3884 43.1006C81.9956 43.1006 82.6746 44.526 82.6746 45.8453C82.6746 47.1646 82.3722 48.2191 80.8923 48.68C80.765 48.786 80.8021 49.0721 80.9453 49.1622C81.1416 49.1781 81.3007 49.1781 81.5182 49.1781C82.4624 49.1781 85.4117 48.7489 85.4117 45.8241C85.417 44.1021 84.3296 43.1536 83.2369 42.7456Z" fill="black"/>
<path d="M98.8905 53.0884C98.0312 52.3572 97.2992 51.022 96.1216 48.6323C96.0314 48.4363 96.0314 48.3303 96.2117 48.2402C97.0339 47.8323 98.1054 47.154 98.1054 45.5645C98.1054 44.4253 97.5697 43.5298 96.5353 42.9258C95.8563 42.5178 94.5514 42.2847 93.0343 42.2847C91.3369 42.2847 89.9471 42.3588 88.6051 42.4436C88.3876 42.5337 88.3876 42.9788 88.568 43.0689L89.0507 43.143C89.7986 43.249 89.8357 43.4451 89.8357 45.2307V51.5465C89.8357 53.1891 89.7297 53.311 88.9234 53.454L88.4407 53.5441C88.2974 53.6342 88.2974 54.0634 88.4407 54.1693C89.369 54.1322 90.154 54.1163 91.0452 54.1163C91.9045 54.1163 92.7214 54.1322 93.6709 54.1693C93.7982 54.0634 93.7982 53.6342 93.6709 53.5441L93.1882 53.454C92.3819 53.311 92.2758 53.1838 92.2758 51.5465V49.3529C92.2758 48.9979 92.3129 48.9609 92.9389 48.9609C93.3844 48.9609 93.6709 49.1039 93.8831 49.5861C94.2915 50.5292 94.7053 51.4035 95.2781 52.3519C96.0632 53.6342 97.0976 54.2223 98.742 54.2223C99.2936 54.2223 99.8665 54.1852 100.153 54.0634C100.243 53.9574 100.243 53.6872 100.079 53.5971C99.8188 53.5706 99.3573 53.4646 98.8905 53.0884ZM94.7477 47.668C94.4082 48.0071 94.0316 48.1661 93.3897 48.1661C92.3342 48.1661 92.2811 48.1131 92.2811 47.4879V44.012C92.3182 43.1536 92.3182 43.1006 93.0503 43.1006C94.4453 43.1006 95.3895 44.1339 95.3895 45.7393C95.3948 46.7937 95.0554 47.366 94.7477 47.668Z" fill="black"/>
<path d="M108.178 42.0516C104.444 42.0516 101.802 44.7803 101.802 48.3145C101.802 52.0394 104.407 54.3972 107.998 54.3972C111.839 54.3972 114.443 52.0606 114.443 48.1714C114.443 44.5472 111.892 42.0516 108.178 42.0516ZM108.338 53.5706C105.425 53.5706 104.656 50.0736 104.656 47.9012C104.656 44.9234 105.834 42.8729 108.03 42.8729C110.242 42.8729 111.584 45.3526 111.584 48.4045C111.584 51.287 110.677 53.5706 108.338 53.5706Z" fill="black"/>
<path d="M127.333 42.3377C126.654 42.3377 125.975 42.3218 125.137 42.2847C124.925 42.3747 124.925 42.7456 125.063 42.8887L125.582 43.0159C126.012 43.1059 126.065 43.196 126.065 43.3179C126.065 43.4239 126.012 43.6199 125.885 43.959C125.673 44.563 124.941 46.5606 124.474 47.6892L123.811 49.3635C123.593 49.8987 123.381 50.3809 123.238 50.6829C123.111 50.3809 122.935 49.9676 122.686 49.3106L121.116 45.2995C120.686 44.2292 120.4 43.4821 120.4 43.3391C120.4 43.1801 120.527 43.0689 120.846 43L121.381 42.894C121.487 42.735 121.509 42.3959 121.365 42.29C120.278 42.3271 119.509 42.343 118.687 42.343C117.758 42.343 117.17 42.3059 116.257 42.29C116.098 42.38 116.04 42.698 116.183 42.894L116.682 43.0212C117.541 43.2331 117.504 43.1642 118.236 44.9657L121.127 52.2248C121.376 52.8288 121.678 53.7772 121.875 54.2594C121.981 54.3495 122.145 54.4025 122.357 54.4025C122.628 54.4025 122.84 54.3495 122.983 54.2594C123.392 53.2633 123.874 51.8539 124.787 49.6921L126.092 46.6083C126.718 45.1618 127.179 44.2027 127.572 43.6093C127.805 43.2331 128.054 43.0953 128.553 42.9841L129.014 42.894C129.142 42.788 129.121 42.3588 128.977 42.29C128.473 42.3165 127.938 42.3377 127.333 42.3377Z" fill="black"/>
<path d="M140 51.218C139.018 53.2315 138.408 53.2845 136.859 53.2845C135.555 53.2845 135.215 53.1414 134.987 52.8235C134.775 52.5215 134.701 51.9492 134.701 51.128V49.0032C134.701 48.4681 134.716 48.4522 135.199 48.4522H136.43C137.358 48.4522 137.554 48.5952 137.751 49.4536L137.841 49.8987C137.968 50.0577 138.414 50.0418 138.504 49.8828C138.467 49.3106 138.451 48.6694 138.451 47.9912C138.451 47.313 138.467 46.6719 138.504 46.0996C138.414 45.9407 137.968 45.9407 137.841 46.0837L137.751 46.5288C137.554 47.3872 137.358 47.509 136.43 47.509H135.199C134.716 47.509 134.701 47.472 134.701 46.9739V43.853C134.701 43.1907 134.701 43.1589 135.289 43.1589H136.716C137.591 43.1589 138.127 43.3762 138.467 43.71C138.7 43.959 138.949 44.4942 139.146 45.1194C139.326 45.2784 139.734 45.2466 139.809 45.0505C139.719 43.853 139.591 42.5708 139.575 42.2847C139.342 42.3218 138.324 42.3377 137.183 42.3377H133.396C132.542 42.3377 131.666 42.3218 130.823 42.2847C130.643 42.3906 130.627 42.8039 130.786 42.9099L131.231 43C132.032 43.143 132.144 43.2702 132.144 44.8916V51.5412C132.144 53.1838 132.038 53.3057 131.231 53.4116L130.393 53.5388C130.25 53.6289 130.25 54.0581 130.393 54.164C131.73 54.1269 132.605 54.111 133.465 54.111H135.788C137.252 54.111 138.965 54.1269 139.915 54.164C140.164 53.6819 140.594 52.2407 140.663 51.3081C140.594 51.0909 140.148 51.022 140 51.218Z" fill="black"/>
<path d="M153.855 42.3377C153.123 42.3377 152.428 42.3218 151.463 42.2847C151.357 42.3906 151.32 42.7668 151.463 42.9099L151.946 42.9841C152.428 43.0742 152.821 43.1801 152.98 43.5563C153.176 44.0385 153.245 45.3737 153.245 46.8202V49.2788C153.245 49.602 153.245 49.904 153.176 50.0841C152.768 49.6762 152.264 49.0509 151.463 48.1237L149.962 46.3593C148.355 44.4518 147.193 43.0953 147.018 42.2953C146.641 42.3324 146.127 42.3483 145.517 42.3483C144.785 42.3483 143.893 42.3324 143.055 42.2953C142.875 42.3483 142.859 42.7774 142.981 42.9205L143.48 42.9947C144.106 43.1218 144.371 43.2967 144.498 43.5987C144.626 43.8477 144.626 44.1339 144.626 45.1141V49.6444C144.626 51.0909 144.551 52.4261 144.376 52.9083C144.217 53.2845 143.878 53.3904 143.395 53.4964L143.093 53.5494C142.949 53.6925 142.986 54.0687 143.093 54.1746C143.772 54.1375 144.429 54.1216 145.092 54.1216C145.808 54.1216 146.519 54.1375 147.485 54.1746C147.591 54.0687 147.628 53.6925 147.485 53.5494L146.986 53.4752C146.519 53.3851 146.111 53.2792 145.952 52.903C145.755 52.4208 145.686 51.0856 145.686 49.6391V46.1791C145.686 45.5168 145.686 45.2148 145.777 45.0399C146.1 45.3101 146.705 46.0413 147.723 47.3236L151.85 52.4261C152.688 53.4593 153.277 54.3707 153.298 54.3707C153.728 54.3707 154.227 54.1746 154.354 53.9627C154.317 53.3746 154.317 52.2513 154.317 51.0909V46.8255C154.317 45.379 154.391 44.0438 154.587 43.5616C154.746 43.1854 155.086 43.0795 155.553 42.9735L155.876 42.9205C156.02 42.7774 155.982 42.4065 155.876 42.2953C155.16 42.3165 154.513 42.3377 153.855 42.3377Z" fill="black"/>
<path d="M169.382 50.8047C168.899 52.0181 167.902 53.5706 165.737 53.5706C163.594 53.5706 161.542 51.6631 161.542 48.113C161.542 44.563 163.669 42.8675 165.647 42.8675C167.382 42.8675 168.522 43.7576 169.005 45.4161C169.132 45.575 169.61 45.5061 169.684 45.2889C169.525 44.2557 169.472 42.8251 169.472 42.5072C168.936 42.4701 167.615 42.0409 165.796 42.0409C163.939 42.0409 162.12 42.576 160.847 43.6305C159.616 44.6478 158.688 46.1791 158.688 48.3568C158.688 50.5663 159.669 52.0499 160.953 53.0301C162.221 53.9732 164.008 54.3865 165.759 54.3865C167.154 54.3865 168.416 53.9944 169.382 53.7242C169.631 53.3162 169.933 52.2459 170.061 50.9213C169.954 50.7199 169.525 50.6669 169.382 50.8047Z" fill="black"/>
<path d="M182.128 51.218C181.147 53.2315 180.537 53.2845 178.988 53.2845C177.683 53.2845 177.344 53.1414 177.116 52.8235C176.904 52.5215 176.829 51.9492 176.829 51.128V49.0032C176.829 48.4681 176.845 48.4522 177.328 48.4522H178.559C179.487 48.4522 179.683 48.5952 179.879 49.4536L179.97 49.8987C180.097 50.0577 180.542 50.0418 180.633 49.8828C180.595 49.3106 180.58 48.6694 180.58 47.9912C180.58 47.313 180.595 46.6719 180.633 46.0996C180.542 45.9407 180.097 45.9407 179.97 46.0837L179.879 46.5288C179.683 47.3872 179.487 47.509 178.559 47.509H177.328C176.845 47.509 176.829 47.472 176.829 46.9739V43.853C176.829 43.1907 176.829 43.1589 177.418 43.1589H178.845C179.72 43.1589 180.256 43.3762 180.595 43.71C180.829 43.959 181.078 44.4942 181.274 45.1194C181.455 45.2784 181.863 45.2466 181.937 45.0505C181.847 43.853 181.72 42.5708 181.704 42.2847C181.471 42.3218 180.452 42.3377 179.312 42.3377H175.53C174.67 42.3377 173.795 42.3218 172.957 42.2847C172.777 42.3906 172.761 42.8039 172.92 42.9099L173.365 43C174.166 43.143 174.278 43.2702 174.278 44.8916V51.5412C174.278 53.1838 174.172 53.3057 173.365 53.4116L172.527 53.5388C172.384 53.6289 172.384 54.0581 172.527 54.164C173.864 54.1269 174.739 54.111 175.599 54.111H177.922C179.386 54.111 181.099 54.1269 182.049 54.164C182.298 53.6819 182.728 52.2407 182.797 51.3081C182.717 51.0909 182.272 51.022 182.128 51.218Z" fill="black"/>
</g>
<defs>
<clipPath id="clip0_1_644">
<rect width="226.072" height="54.2572" fill="white" transform="translate(0.290283 0.134644)"/>
</clipPath>
</defs>
</svg>
