<svg width="191" height="49" viewBox="0 0 191 49" fill="none" xmlns="http://www.w3.org/2000/svg">
<path d="M61.1934 38.2485L63.5766 32.697C66.1521 34.6246 69.5732 35.627 72.9559 35.627C75.4544 35.627 77.0305 34.6632 77.0305 33.1982C76.992 29.1117 62.0775 32.3115 61.9622 22.0567C61.9237 16.8522 66.5365 12.8428 73.0712 12.8428C76.9536 12.8428 80.836 13.8066 83.6036 16.0041L81.3741 21.6712C78.8371 20.052 75.6851 18.8955 72.6868 18.8955C70.6495 18.8955 69.3041 19.8593 69.3041 21.0929C69.3426 25.1023 84.3724 22.9049 84.5262 32.697C84.5262 38.0172 80.0288 41.7567 73.5709 41.7567C68.8428 41.7567 64.4992 40.6387 61.1934 38.2485Z" fill="black"/>
<path d="M152.641 30.6923C151.45 32.7741 149.22 34.2006 146.645 34.2006C142.839 34.2006 139.764 31.1164 139.764 27.2998C139.764 23.4831 142.839 20.399 146.645 20.399C149.22 20.399 151.45 21.8254 152.641 23.9072L159.214 20.2448C156.754 15.8499 152.026 12.8428 146.645 12.8428C138.688 12.8428 132.23 19.3195 132.23 27.2998C132.23 35.28 138.688 41.7567 146.645 41.7567C152.065 41.7567 156.754 38.7882 159.214 34.3548L152.641 30.6923Z" fill="black"/>
<path d="M96.0581 0.85321H87.832V41.217H96.0581V0.85321Z" fill="black"/>
<path d="M162.443 0.85321V41.217H170.669V29.1117L180.433 41.217H190.966L178.55 26.8372L190.043 13.4211H179.972L170.669 24.5626V0.85321H162.443Z" fill="black"/>
<path d="M120.506 30.7695C119.314 32.7356 116.854 34.2006 114.086 34.2006C110.281 34.2006 107.206 31.1164 107.206 27.2998C107.206 23.4831 110.281 20.399 114.086 20.399C116.854 20.399 119.314 21.9411 120.506 23.9458V30.7695ZM120.506 13.4211V16.698C119.16 14.4235 115.816 12.8428 112.318 12.8428C105.091 12.8428 99.4023 19.2424 99.4023 27.2612C99.4023 35.28 105.091 41.7567 112.318 41.7567C115.816 41.7567 119.16 40.1761 120.506 37.9015V41.1785H128.732V13.4211H120.506Z" fill="black"/>
<path d="M10.3377 30.7309C10.3377 33.5452 8.06981 35.8197 5.26372 35.8197C2.45763 35.8197 0.189697 33.5452 0.189697 30.7309C0.189697 27.9166 2.45763 25.642 5.26372 25.642H10.3377V30.7309Z" fill="black"/>
<path d="M12.8748 30.7309C12.8748 27.9166 15.1427 25.642 17.9488 25.642C20.7549 25.642 23.0228 27.9166 23.0228 30.7309V43.453C23.0228 46.2673 20.7549 48.5418 17.9488 48.5418C15.1427 48.5418 12.8748 46.2673 12.8748 43.453V30.7309Z" fill="black"/>
<path d="M17.9488 10.2984C15.1427 10.2984 12.8748 8.02386 12.8748 5.20957C12.8748 2.39529 15.1427 0.120728 17.9488 0.120728C20.7549 0.120728 23.0228 2.39529 23.0228 5.20957V10.2984H17.9488Z" fill="black"/>
<path d="M17.9489 12.8814C20.755 12.8814 23.0229 15.156 23.0229 17.9703C23.0229 20.7845 20.755 23.0591 17.9489 23.0591H5.22539C2.4193 23.0591 0.151367 20.7845 0.151367 17.9703C0.151367 15.156 2.4193 12.8814 5.22539 12.8814H17.9489Z" fill="black"/>
<path d="M38.2834 17.9703C38.2834 15.156 40.5514 12.8814 43.3575 12.8814C46.1636 12.8814 48.4315 15.156 48.4315 17.9703C48.4315 20.7845 46.1636 23.0591 43.3575 23.0591H38.2834V17.9703Z" fill="black"/>
<path d="M35.7464 17.9702C35.7464 20.7845 33.4785 23.0591 30.6724 23.0591C27.8663 23.0591 25.5984 20.7845 25.5984 17.9702V5.20957C25.5984 2.39529 27.8663 0.120728 30.6724 0.120728C33.4785 0.120728 35.7464 2.39529 35.7464 5.20957V17.9702Z" fill="black"/>
<path d="M30.6724 38.3641C33.4785 38.3641 35.7464 40.6387 35.7464 43.453C35.7464 46.2673 33.4785 48.5418 30.6724 48.5418C27.8663 48.5418 25.5984 46.2673 25.5984 43.453V38.3641H30.6724Z" fill="black"/>
<path d="M30.6724 35.8197C27.8663 35.8197 25.5984 33.5452 25.5984 30.7309C25.5984 27.9166 27.8663 25.642 30.6724 25.642H43.3959C46.202 25.642 48.4699 27.9166 48.4699 30.7309C48.4699 33.5452 46.202 35.8197 43.3959 35.8197H30.6724Z" fill="black"/>
</svg>
