<svg width="537" height="76" viewBox="0 0 537 76" fill="none" xmlns="http://www.w3.org/2000/svg">
<path d="M39.3217 75.5809L11.4819 16.0157C9.68968 12.2322 7.98733 9.59975 6.37727 8.12325C4.7672 6.64674 2.89972 5.90606 0.774817 5.90606H0.575684V3.0672H40.7666L40.7181 5.90849C38.8919 5.97406 37.5052 6.37961 36.5581 7.12758C35.611 7.87311 35.1399 8.92949 35.1399 10.2894C35.1399 10.9208 35.2298 11.6178 35.4119 12.3803C35.5965 13.1453 35.8854 13.9758 36.2861 14.8719L46.9932 41.6165L61.2361 0.629028L76.8754 41.6165L86.5358 15.8166C86.8029 15.0881 87.0093 14.2818 87.1574 13.4027C87.308 12.5236 87.3809 11.6178 87.3809 10.6877C87.3809 9.22819 86.883 8.10625 85.8874 7.32671C84.8917 6.54718 83.3812 6.07363 81.3559 5.90606V3.0672H101.925V5.90849C99.3022 6.17319 97.2185 6.99401 95.6741 8.37338C94.1296 9.75031 92.6433 12.2662 91.2154 15.9162L68.1086 75.5809L53.0668 36.4342L39.3217 75.5809ZM143.503 65.1725C140.681 68.5578 137.444 71.1393 133.789 72.9169C130.144 74.6913 126.14 75.6028 122.086 75.5809C118.302 75.5809 114.757 74.8159 111.454 73.2884C108.152 71.7623 105.234 69.5161 102.913 66.7146C100.975 64.4259 99.4727 61.801 98.4813 58.9703C97.4857 56.1338 96.9854 53.0691 96.9854 49.7834C96.9854 46.3957 97.4687 43.2412 98.4303 40.3197C99.4239 37.3406 100.905 34.5472 102.814 32.0533C104.939 29.1634 107.802 26.8248 111.403 25.0302C115.007 23.238 118.667 22.3419 122.385 22.3419C128.859 22.3419 134.032 24.3162 137.9 28.2673C141.766 32.2184 143.702 37.5149 143.702 44.1543H114.866C115.065 50.0651 116.991 54.9779 120.643 58.895C124.296 62.8145 128.694 64.7719 133.84 64.7719C135.799 64.7719 137.575 64.4173 139.17 63.7033C140.822 62.9461 142.298 61.8517 143.503 60.4905V65.1725ZM114.767 40.6209H119.347C123.864 40.6209 126.634 40.2299 127.664 39.4479C128.694 38.6708 129.209 37.1822 129.209 34.9917C129.209 32.0363 128.677 29.8191 127.616 28.3426C126.554 26.8661 124.944 26.1278 122.783 26.1278C120.029 26.1278 118.004 27.2813 116.709 29.5884C115.415 31.8954 114.767 35.5745 114.767 40.6209ZM163.018 7.64727C159.2 8.31267 155.922 9.88873 153.182 12.3779C150.443 14.8695 148.143 18.3543 146.286 22.8373L144.042 22.0407L148.029 1.22643C148.959 1.82383 150.171 2.28038 151.665 2.59608C153.158 2.91178 154.936 3.0672 156.993 3.0672H191.406C193.432 3.0672 195.185 2.91178 196.661 2.59608C198.138 2.28038 199.342 1.82383 200.273 1.22643L204.355 22.0432L202.116 22.8397C200.19 18.2912 197.866 14.7796 195.141 12.3075C192.421 9.83288 189.167 8.28109 185.379 7.6497V61.8358C185.379 65.09 185.928 67.3144 187.025 68.5092C188.118 69.704 190.211 70.401 193.3 70.6001V73.439H154.95V70.6001C158.102 70.401 160.237 69.6943 161.349 68.4825C162.461 67.2707 163.018 65.056 163.018 61.8358V7.64727ZM227.704 30.7055C229.363 27.9176 231.165 25.8243 233.108 24.4303C235.05 23.0364 237.132 22.3394 239.356 22.3394C241.814 22.3394 243.79 23.068 245.282 24.5299C246.777 25.9918 247.525 27.9176 247.525 30.3096C247.525 32.3981 246.901 34.0762 245.656 35.3365C244.412 36.5993 242.761 37.2307 240.701 37.2307C238.844 37.2307 237.059 36.4828 235.349 34.9893C233.637 33.4958 232.552 32.7478 232.085 32.7478C230.992 32.7478 230.211 33.4763 229.744 34.9383C229.278 36.4002 229.047 39.0059 229.047 42.7579V63.3269C229.047 65.9157 229.572 67.7759 230.616 68.9051C231.663 70.0343 233.38 70.5977 235.772 70.5977H236.07V73.439H203.447V70.6001H203.745C205.938 70.6001 207.507 70.044 208.452 68.9318C209.396 67.8196 209.872 65.9521 209.872 63.3293V44.5525C209.872 42.9595 209.673 41.7817 209.275 41.0167C208.877 40.2517 208.129 39.5062 207.033 38.7777L200.807 34.3943C204.061 33.2651 207.813 31.7133 212.063 29.7365C216.312 27.7622 221.526 25.1637 227.702 21.9412L227.704 30.7055ZM274.761 44.0523C271.774 45.2495 269.498 47.1315 267.937 49.7057C266.375 52.2799 265.596 55.4247 265.596 59.1427C265.596 61.2676 266.018 62.9627 266.866 64.223C267.713 65.4858 268.816 66.1172 270.178 66.1172C271.936 66.1172 273.141 65.4178 273.789 64.0239C274.435 62.63 274.761 59.1427 274.761 53.5645V44.0523ZM275.708 67.0109C273.182 69.9008 270.535 72.0499 267.762 73.4609C264.988 74.8718 262.06 75.5785 258.971 75.5785C254.889 75.5785 251.576 74.425 249.038 72.1179C246.496 69.8109 245.226 66.8482 245.226 63.2274C245.226 58.9436 247.161 55.2183 251.03 52.0467C254.896 48.8752 262.808 44.9824 274.761 40.3659V36.8325C274.761 33.1145 274.287 30.448 273.34 28.838C272.393 27.2279 270.841 26.4241 268.685 26.4241C266.924 26.4241 265.462 26.9462 264.301 27.9929C263.14 29.0395 262.558 30.3412 262.558 31.9027C262.558 32.7308 262.592 33.7022 262.657 34.8168C262.723 35.9266 262.757 36.6333 262.757 36.9296C262.757 39.3556 262.084 41.3057 260.741 42.7822C259.396 44.2611 257.611 44.9994 255.386 44.9994C253.361 44.9994 251.734 44.3607 250.505 43.0809C249.276 41.8011 248.662 40.1182 248.662 38.0273C248.662 33.5103 250.804 29.7705 255.088 26.7956C259.371 23.8256 264.882 22.3394 271.623 22.3394C275.407 22.3394 278.836 22.8203 281.905 23.7844C284.977 24.746 287.491 26.14 289.45 27.9662C291.046 29.4621 292.173 31.2033 292.838 33.1971C293.503 35.1908 293.834 38.1924 293.834 42.2115V56.4034C293.834 60.3545 294.142 63.1618 294.756 64.8204C295.368 66.4815 296.359 67.312 297.719 67.312C298.029 67.3097 298.334 67.2418 298.615 67.1129C298.914 66.9793 299.23 66.7802 299.562 66.5131V69.7502C298.234 71.4453 296.515 72.7566 294.407 73.6843C292.299 74.6144 289.965 75.0807 287.41 75.0807C284.487 75.0807 282.039 74.4007 280.064 73.0383C278.09 71.676 276.638 69.6676 275.708 67.0109ZM326.001 63.3269C326.001 65.8841 326.455 67.7176 327.368 68.8298C328.281 69.942 329.802 70.5297 331.926 70.5977V73.439H300.4V70.6001H300.699C302.892 70.6001 304.461 70.044 305.405 68.9318C306.352 67.8196 306.826 65.9521 306.826 63.3293V44.5525C306.826 42.9595 306.627 41.7817 306.229 41.0167C305.828 40.2542 305.082 39.5062 303.987 38.7777L297.76 34.3943C302.096 32.8095 306.358 31.0317 310.534 29.0663C315.198 26.8703 319.775 24.4943 324.255 21.9436V30.4092C326.246 27.7525 328.573 25.7611 331.227 24.4352C333.884 23.1044 336.873 22.4414 340.193 22.4414C345.638 22.4414 349.695 23.8256 352.369 26.5989C355.04 29.3722 356.376 33.5978 356.376 39.2755V63.3293C356.376 65.9521 356.852 67.8196 357.797 68.9318C358.744 70.044 360.313 70.6001 362.503 70.6001H362.802V73.439H337.206V39.7733C337.206 36.1865 336.764 33.6973 335.885 32.3034C335.006 30.907 333.519 30.2101 331.429 30.2101C329.469 30.2101 328.075 30.9337 327.244 32.3762C326.414 33.8212 325.999 36.2861 325.999 39.7733L326.001 63.3269ZM364.49 71.3943V55.0605H367.078C368.572 60.4711 370.864 64.6456 373.951 67.584C377.037 70.5224 380.658 71.9917 384.808 71.9917C387.033 71.9917 388.76 71.4768 389.988 70.4496C391.217 69.4199 391.832 67.975 391.832 66.1148C391.832 62.4624 388.245 59.1767 381.074 56.2553L380.425 56.0051C374.118 53.4504 369.934 51.0341 367.875 48.7586C365.818 46.4856 364.788 43.5544 364.788 39.9676C364.788 34.625 366.797 30.3655 370.813 27.1939C374.83 24.0224 380.277 22.4414 387.15 22.4414C389.738 22.4414 392.395 22.6648 395.117 23.1141C397.84 23.5609 400.63 24.2166 403.483 25.0812V38.6781H400.994C398.736 34.0956 396.477 30.8415 394.219 28.9157C391.96 26.9899 389.374 26.0258 386.453 26.0258C384.26 26.0258 382.484 26.5674 381.122 27.6456C379.76 28.7238 379.082 30.1105 379.082 31.8031C379.082 34.6274 382.749 37.5149 390.088 40.4703C390.685 40.7034 391.132 40.8831 391.431 41.0167C398.107 43.7414 402.422 46.2136 404.382 48.4381C406.339 50.6625 407.32 53.6179 407.32 57.3019C407.32 62.7149 405.237 67.1129 401.069 70.5006C396.902 73.8883 391.482 75.5809 384.808 75.5809C381.554 75.5809 378.235 75.2312 374.847 74.5367C371.31 73.793 367.844 72.7399 364.49 71.3943ZM435.301 63.3269C435.301 65.9837 435.782 67.8584 436.746 68.9537C437.708 70.0489 439.335 70.5977 441.627 70.5977H442.324V73.439H409.703V70.6001H410.001C412.192 70.6001 413.761 70.044 414.708 68.9318C415.655 67.8196 416.126 65.9521 416.126 63.3293V28.3669H411.245V25.579C412.806 24.3502 414.766 21.81 417.122 17.9585C418.384 15.9332 419.38 14.4057 420.111 13.3784C422.6 9.82559 425.565 7.06201 428.999 5.08525C432.433 3.10848 436.032 2.12253 439.781 2.12253C443.801 2.12253 447.079 3.09391 449.617 5.03668C452.159 6.97944 453.429 9.4419 453.429 12.4313C453.429 14.4227 452.798 16.0254 451.535 17.2372C450.275 18.449 448.597 19.0537 446.508 19.0537C444.881 19.0537 443.519 18.6822 442.424 17.9342C441.326 17.1862 440.182 15.7 438.987 13.478C437.759 11.3167 436.712 9.90816 435.85 9.24276C434.985 8.5798 433.956 8.2471 432.761 8.2471C431.367 8.2471 430.272 8.65508 429.475 9.46861C428.676 10.2821 428.278 11.3677 428.278 12.73C428.278 14.192 429.259 16.091 431.216 18.432C433.176 20.7731 434.436 22.8227 435.002 24.5833H444.364V28.3669H435.301V63.3269ZM490.476 65.1701C487.654 68.5554 484.417 71.1368 480.762 72.9145C477.117 74.6889 473.113 75.6004 469.059 75.5785C465.275 75.5785 461.73 74.8135 458.427 73.286C455.125 71.7599 452.207 69.5136 449.886 66.7122C447.948 64.4235 446.446 61.7986 445.454 58.9678C444.459 56.1314 443.958 53.0667 443.958 49.781C443.958 46.3933 444.442 43.2387 445.403 40.3173C446.397 37.3382 447.878 34.5447 449.787 32.0508C451.912 29.161 454.775 26.8224 458.376 25.0277C461.98 23.2355 465.64 22.3394 469.358 22.3394C475.832 22.3394 481.005 24.3138 484.873 28.2649C488.739 32.216 490.675 37.5124 490.675 44.1518H461.839C462.038 50.0627 463.964 54.9755 467.616 58.8926C471.269 62.8121 475.667 64.7694 480.813 64.7694C482.772 64.7694 484.548 64.4149 486.141 63.7009C487.794 62.9439 489.27 61.8495 490.476 60.4881V65.1701ZM461.74 40.6184H466.32C470.837 40.6184 473.607 40.2274 474.637 39.4455C475.667 38.6684 476.182 37.1797 476.182 34.9893C476.182 32.0338 475.65 29.8166 474.589 28.3401C473.525 26.8636 471.917 26.1254 469.756 26.1254C467.002 26.1254 464.977 27.2789 463.68 29.5859C462.383 31.893 461.737 35.5697 461.737 40.616L461.74 40.6184ZM516.914 30.7055C518.573 27.9176 520.375 25.8243 522.315 24.4303C524.258 23.0364 526.341 22.3394 528.566 22.3394C531.023 22.3394 532.998 23.068 534.491 24.5299C535.987 25.9918 536.735 27.9176 536.735 30.3096C536.735 32.3981 536.111 34.0762 534.865 35.3365C533.622 36.5993 531.971 37.2307 529.911 37.2307C528.051 37.2307 526.269 36.4828 524.556 34.9893C522.847 33.4958 521.759 32.7478 521.295 32.7478C520.2 32.7478 519.42 33.4763 518.954 34.9383C518.488 36.4002 518.257 39.0059 518.257 42.7579V63.3269C518.257 65.9157 518.779 67.7759 519.826 68.9051C520.87 70.0343 522.589 70.5977 524.981 70.5977H525.28V73.439H492.659V70.6001H492.957C495.148 70.6001 496.717 70.044 497.664 68.9318C498.611 67.8196 499.084 65.9521 499.084 63.3293V44.5525C499.084 42.9595 498.885 41.7817 498.487 41.0167C498.089 40.2517 497.341 39.5062 496.246 38.7777L490.019 34.3943C493.273 33.2651 497.025 31.7133 501.275 29.7365C505.525 27.7622 510.736 25.1637 516.914 21.9412V30.7055Z" fill="black"/>
</svg>
